<?xml version="1.0" encoding="UTF-8"?>
<svg width="700pt" height="700pt" version="1.1" viewBox="0 0 700 700" xmlns="http://www.w3.org/2000/svg" xmlns:xlink="http://www.w3.org/1999/xlink">

 <g>
  <path d="m403.76 201.04c0 27.836-22.566 50.402-50.402 50.402s-50.398-22.566-50.398-50.402c0-27.836 22.562-50.398 50.398-50.398s50.402 22.562 50.402 50.398"/>
  <path d="m537.6 236.32c0 27.836-22.566 50.398-50.402 50.398-27.836 0-50.398-22.562-50.398-50.398 0-27.836 22.562-50.398 50.398-50.398 27.836 0 50.402 22.562 50.402 50.398"/>
  <path d="m339.92 532c-120.4 0-230.72-86.801-236.32-91.281-3.3594-2.8008-5.6016-7.2812-5.6016-11.762s2.2383-8.9609 5.6016-11.762c71.121-54.32 109.76-195.44 110.32-197.12l14.559-54.879c26.879-97.996 131.04-156.8 231.84-131.04 49.84 12.879 91.281 43.68 117.04 87.359 24.641 42 31.359 91.281 18.48 138.32l-14.559 54.879c-38.078 114.8-97.441 184.8-177.52 208.32-21.281 6.1602-43.121 8.9609-63.84 8.9609zm-203.28-103.6c39.762 27.441 155.12 97.441 258.72 66.078 70-20.719 122.64-84 157.36-188.72l14.559-53.762c10.641-39.199 5.0391-80.078-15.68-115.92-21.281-36.961-56.559-62.719-98.559-73.359-85.68-21.84-173.04 28-195.44 110.88l-14.559 54.879c-1.6797 5.6055-36.961 133.85-106.4 199.93z"/>
  <path d="m406.56 288.96c-10.078-3.9219-23.52 6.1602-30.238 22.961s-3.9219 33.602 6.1602 37.52c10.078 3.9219 23.52-6.1602 30.238-22.961 6.1602-16.801 3.9219-33.602-6.1602-37.52z"/>
  <use x="70" y="644" xlink:href="#u"/>
  <use x="90.550781" y="644" xlink:href="#f"/>
  <use x="104.359375" y="644" xlink:href="#c"/>
  <use x="123.347656" y="644" xlink:href="#b"/>
  <use x="142.242188" y="644" xlink:href="#e"/>
  <use x="155.628906" y="644" xlink:href="#c"/>
  <use x="174.617188" y="644" xlink:href="#k"/>
  <use x="204.410156" y="644" xlink:href="#j"/>
  <use x="224.453125" y="644" xlink:href="#a"/>
  <use x="252.453125" y="644" xlink:href="#i"/>
  <use x="274.011719" y="644" xlink:href="#d"/>
  <use x="293.25" y="644" xlink:href="#a"/>
  <use x="311.5" y="644" xlink:href="#a"/>
  <use x="329.75" y="644" xlink:href="#b"/>
  <use x="348.648438" y="644" xlink:href="#h"/>
  <use x="378.328125" y="644" xlink:href="#t"/>
  <use x="409.210938" y="644" xlink:href="#s"/>
  <use x="418.8125" y="644" xlink:href="#g"/>
  <use x="428.40625" y="644" xlink:href="#b"/>
  <use x="447.304687" y="644" xlink:href="#a"/>
  <use x="465.554688" y="644" xlink:href="#b"/>
  <use x="70" y="672" xlink:href="#r"/>
  <use x="82.183594" y="672" xlink:href="#f"/>
  <use x="95.992188" y="672" xlink:href="#d"/>
  <use x="115.226562" y="672" xlink:href="#q"/>
  <use x="154.152344" y="672" xlink:href="#e"/>
  <use x="167.535156" y="672" xlink:href="#p"/>
  <use x="187.46875" y="672" xlink:href="#c"/>
  <use x="216.207031" y="672" xlink:href="#o"/>
  <use x="239.640625" y="672" xlink:href="#d"/>
  <use x="258.878906" y="672" xlink:href="#n"/>
  <use x="278.8125" y="672" xlink:href="#h"/>
  <use x="308.492188" y="672" xlink:href="#m"/>
  <use x="329.015625" y="672" xlink:href="#f"/>
  <use x="342.820312" y="672" xlink:href="#d"/>
  <use x="362.058594" y="672" xlink:href="#g"/>
  <use x="371.65625" y="672" xlink:href="#c"/>
  <use x="390.648438" y="672" xlink:href="#l"/>
  <use x="407.242188" y="672" xlink:href="#e"/>
 </g>
</svg>
